{
	"patcher" : 	{
		"fileversion" : 1,
		"appversion" : 		{
			"major" : 8,
			"minor" : 6,
			"revision" : 4,
			"architecture" : "x64",
			"modernui" : 1
		}
,
		"classnamespace" : "box",
		"rect" : [ 59.0, 106.0, 1238.0, 851.0 ],
		"bglocked" : 0,
		"openinpresentation" : 0,
		"default_fontsize" : 12.0,
		"default_fontface" : 0,
		"default_fontname" : "Arial",
		"gridonopen" : 1,
		"gridsize" : [ 15.0, 15.0 ],
		"gridsnaponopen" : 1,
		"objectsnaponopen" : 1,
		"statusbarvisible" : 2,
		"toolbarvisible" : 1,
		"lefttoolbarpinned" : 0,
		"toptoolbarpinned" : 0,
		"righttoolbarpinned" : 0,
		"bottomtoolbarpinned" : 0,
		"toolbars_unpinned_last_save" : 0,
		"tallnewobj" : 0,
		"boxanimatetime" : 200,
		"enablehscroll" : 1,
		"enablevscroll" : 1,
		"devicewidth" : 0.0,
		"description" : "",
		"digest" : "",
		"tags" : "",
		"style" : "",
		"subpatcher_template" : "",
		"assistshowspatchername" : 0,
		"boxes" : [ 			{
				"box" : 				{
					"comment" : "",
					"id" : "obj-9",
					"index" : 2,
					"maxclass" : "outlet",
					"numinlets" : 1,
					"numoutlets" : 0,
					"patching_rect" : [ 619.0, 749.0, 67.0, 67.0 ],
					"tricolor" : [ 0.0, 0.729411764705882, 1.0, 1.0 ]
				}

			}
, 			{
				"box" : 				{
					"blinkcolor" : [ 0.094117647058824, 0.76078431372549, 0.294117647058824, 1.0 ],
					"id" : "obj-81",
					"maxclass" : "button",
					"numinlets" : 1,
					"numoutlets" : 1,
					"outlettype" : [ "bang" ],
					"parameter_enable" : 0,
					"patching_rect" : [ 1111.0, 597.0, 24.0, 24.0 ]
				}

			}
, 			{
				"box" : 				{
					"id" : "obj-82",
					"maxclass" : "newobj",
					"numinlets" : 2,
					"numoutlets" : 2,
					"outlettype" : [ "bang", "" ],
					"patching_rect" : [ 1059.0, 598.0, 41.0, 22.0 ],
					"text" : "sel 14"
				}

			}
, 			{
				"box" : 				{
					"blinkcolor" : [ 1.0, 0.898039215686275, 0.011764705882353, 1.0 ],
					"id" : "obj-84",
					"maxclass" : "button",
					"numinlets" : 1,
					"numoutlets" : 1,
					"outlettype" : [ "bang" ],
					"parameter_enable" : 0,
					"patching_rect" : [ 1148.0, 648.0, 20.0, 20.0 ]
				}

			}
, 			{
				"box" : 				{
					"fontsize" : 9.0,
					"id" : "obj-85",
					"linecount" : 7,
					"maxclass" : "newobj",
					"numinlets" : 1,
					"numoutlets" : 3,
					"outlettype" : [ "int", "bang", "" ],
					"patching_rect" : [ 1052.0, 630.0, 78.0, 79.0 ],
					"text" : "seq \"~:Documents/UM_stuff/510 History of PAT/midi_from_davis/short/short4e.mid\""
				}

			}
, 			{
				"box" : 				{
					"blinkcolor" : [ 0.094117647058824, 0.76078431372549, 0.294117647058824, 1.0 ],
					"id" : "obj-86",
					"maxclass" : "button",
					"numinlets" : 1,
					"numoutlets" : 1,
					"outlettype" : [ "bang" ],
					"parameter_enable" : 0,
					"patching_rect" : [ 958.0, 597.0, 24.0, 24.0 ]
				}

			}
, 			{
				"box" : 				{
					"id" : "obj-87",
					"maxclass" : "newobj",
					"numinlets" : 2,
					"numoutlets" : 2,
					"outlettype" : [ "bang", "" ],
					"patching_rect" : [ 906.0, 598.0, 41.0, 22.0 ],
					"text" : "sel 13"
				}

			}
, 			{
				"box" : 				{
					"blinkcolor" : [ 1.0, 0.898039215686275, 0.011764705882353, 1.0 ],
					"id" : "obj-88",
					"maxclass" : "button",
					"numinlets" : 1,
					"numoutlets" : 1,
					"outlettype" : [ "bang" ],
					"parameter_enable" : 0,
					"patching_rect" : [ 995.0, 648.0, 20.0, 20.0 ]
				}

			}
, 			{
				"box" : 				{
					"fontsize" : 9.0,
					"id" : "obj-89",
					"linecount" : 7,
					"maxclass" : "newobj",
					"numinlets" : 1,
					"numoutlets" : 3,
					"outlettype" : [ "int", "bang", "" ],
					"patching_rect" : [ 899.0, 630.0, 83.0, 79.0 ],
					"text" : "seq \"~:Documents/UM_stuff/510 History of PAT/midi_from_davis/short/short8e.mid\""
				}

			}
, 			{
				"box" : 				{
					"blinkcolor" : [ 0.094117647058824, 0.76078431372549, 0.294117647058824, 1.0 ],
					"id" : "obj-90",
					"maxclass" : "button",
					"numinlets" : 1,
					"numoutlets" : 1,
					"outlettype" : [ "bang" ],
					"parameter_enable" : 0,
					"patching_rect" : [ 803.0, 594.0, 24.0, 24.0 ]
				}

			}
, 			{
				"box" : 				{
					"id" : "obj-91",
					"maxclass" : "newobj",
					"numinlets" : 2,
					"numoutlets" : 2,
					"outlettype" : [ "bang", "" ],
					"patching_rect" : [ 751.0, 595.0, 41.0, 22.0 ],
					"text" : "sel 12"
				}

			}
, 			{
				"box" : 				{
					"blinkcolor" : [ 1.0, 0.898039215686275, 0.011764705882353, 1.0 ],
					"id" : "obj-92",
					"maxclass" : "button",
					"numinlets" : 1,
					"numoutlets" : 1,
					"outlettype" : [ "bang" ],
					"parameter_enable" : 0,
					"patching_rect" : [ 840.0, 645.0, 20.0, 20.0 ]
				}

			}
, 			{
				"box" : 				{
					"fontsize" : 9.0,
					"id" : "obj-93",
					"linecount" : 7,
					"maxclass" : "newobj",
					"numinlets" : 1,
					"numoutlets" : 3,
					"outlettype" : [ "int", "bang", "" ],
					"patching_rect" : [ 744.0, 627.0, 79.0, 79.0 ],
					"text" : "seq \"~:Documents/UM_stuff/510 History of PAT/midi_from_davis/short/short24e.mid\""
				}

			}
, 			{
				"box" : 				{
					"blinkcolor" : [ 0.094117647058824, 0.76078431372549, 0.294117647058824, 1.0 ],
					"id" : "obj-94",
					"maxclass" : "button",
					"numinlets" : 1,
					"numoutlets" : 1,
					"outlettype" : [ "bang" ],
					"parameter_enable" : 0,
					"patching_rect" : [ 651.0, 591.0, 24.0, 24.0 ]
				}

			}
, 			{
				"box" : 				{
					"id" : "obj-95",
					"maxclass" : "newobj",
					"numinlets" : 2,
					"numoutlets" : 2,
					"outlettype" : [ "bang", "" ],
					"patching_rect" : [ 599.0, 592.0, 40.0, 22.0 ],
					"text" : "sel 11"
				}

			}
, 			{
				"box" : 				{
					"blinkcolor" : [ 1.0, 0.898039215686275, 0.011764705882353, 1.0 ],
					"id" : "obj-96",
					"maxclass" : "button",
					"numinlets" : 1,
					"numoutlets" : 1,
					"outlettype" : [ "bang" ],
					"parameter_enable" : 0,
					"patching_rect" : [ 688.0, 642.0, 20.0, 20.0 ]
				}

			}
, 			{
				"box" : 				{
					"fontsize" : 9.0,
					"id" : "obj-97",
					"linecount" : 7,
					"maxclass" : "newobj",
					"numinlets" : 1,
					"numoutlets" : 3,
					"outlettype" : [ "int", "bang", "" ],
					"patching_rect" : [ 592.0, 624.0, 75.0, 79.0 ],
					"text" : "seq \"~:Documents/UM_stuff/510 History of PAT/midi_from_davis/short/short23e.mid\""
				}

			}
, 			{
				"box" : 				{
					"blinkcolor" : [ 0.094117647058824, 0.76078431372549, 0.294117647058824, 1.0 ],
					"id" : "obj-98",
					"maxclass" : "button",
					"numinlets" : 1,
					"numoutlets" : 1,
					"outlettype" : [ "bang" ],
					"parameter_enable" : 0,
					"patching_rect" : [ 1111.0, 441.0, 24.0, 24.0 ]
				}

			}
, 			{
				"box" : 				{
					"id" : "obj-99",
					"maxclass" : "newobj",
					"numinlets" : 2,
					"numoutlets" : 2,
					"outlettype" : [ "bang", "" ],
					"patching_rect" : [ 1059.0, 442.0, 41.0, 22.0 ],
					"text" : "sel 24"
				}

			}
, 			{
				"box" : 				{
					"blinkcolor" : [ 1.0, 0.898039215686275, 0.011764705882353, 1.0 ],
					"id" : "obj-100",
					"maxclass" : "button",
					"numinlets" : 1,
					"numoutlets" : 1,
					"outlettype" : [ "bang" ],
					"parameter_enable" : 0,
					"patching_rect" : [ 1148.0, 492.0, 20.0, 20.0 ]
				}

			}
, 			{
				"box" : 				{
					"fontsize" : 9.0,
					"id" : "obj-101",
					"linecount" : 7,
					"maxclass" : "newobj",
					"numinlets" : 1,
					"numoutlets" : 3,
					"outlettype" : [ "int", "bang", "" ],
					"patching_rect" : [ 1052.0, 474.0, 83.0, 79.0 ],
					"text" : "seq \"~:Documents/UM_stuff/510 History of PAT/midi_from_davis/short/short12e.mid\""
				}

			}
, 			{
				"box" : 				{
					"blinkcolor" : [ 0.094117647058824, 0.76078431372549, 0.294117647058824, 1.0 ],
					"id" : "obj-102",
					"maxclass" : "button",
					"numinlets" : 1,
					"numoutlets" : 1,
					"outlettype" : [ "bang" ],
					"parameter_enable" : 0,
					"patching_rect" : [ 958.0, 441.0, 24.0, 24.0 ]
				}

			}
, 			{
				"box" : 				{
					"id" : "obj-103",
					"maxclass" : "newobj",
					"numinlets" : 2,
					"numoutlets" : 2,
					"outlettype" : [ "bang", "" ],
					"patching_rect" : [ 906.0, 442.0, 41.0, 22.0 ],
					"text" : "sel 23"
				}

			}
, 			{
				"box" : 				{
					"blinkcolor" : [ 1.0, 0.898039215686275, 0.011764705882353, 1.0 ],
					"id" : "obj-104",
					"maxclass" : "button",
					"numinlets" : 1,
					"numoutlets" : 1,
					"outlettype" : [ "bang" ],
					"parameter_enable" : 0,
					"patching_rect" : [ 995.0, 492.0, 20.0, 20.0 ]
				}

			}
, 			{
				"box" : 				{
					"fontsize" : 9.0,
					"id" : "obj-105",
					"linecount" : 7,
					"maxclass" : "newobj",
					"numinlets" : 1,
					"numoutlets" : 3,
					"outlettype" : [ "int", "bang", "" ],
					"patching_rect" : [ 899.0, 474.0, 83.0, 79.0 ],
					"text" : "seq \"~:Documents/UM_stuff/510 History of PAT/midi_from_davis/short/short11e.mid\""
				}

			}
, 			{
				"box" : 				{
					"blinkcolor" : [ 0.094117647058824, 0.76078431372549, 0.294117647058824, 1.0 ],
					"id" : "obj-106",
					"maxclass" : "button",
					"numinlets" : 1,
					"numoutlets" : 1,
					"outlettype" : [ "bang" ],
					"parameter_enable" : 0,
					"patching_rect" : [ 803.0, 441.0, 24.0, 24.0 ]
				}

			}
, 			{
				"box" : 				{
					"id" : "obj-107",
					"maxclass" : "newobj",
					"numinlets" : 2,
					"numoutlets" : 2,
					"outlettype" : [ "bang", "" ],
					"patching_rect" : [ 751.0, 442.0, 41.0, 22.0 ],
					"text" : "sel 22"
				}

			}
, 			{
				"box" : 				{
					"blinkcolor" : [ 1.0, 0.898039215686275, 0.011764705882353, 1.0 ],
					"id" : "obj-108",
					"maxclass" : "button",
					"numinlets" : 1,
					"numoutlets" : 1,
					"outlettype" : [ "bang" ],
					"parameter_enable" : 0,
					"patching_rect" : [ 840.0, 492.0, 20.0, 20.0 ]
				}

			}
, 			{
				"box" : 				{
					"fontsize" : 9.0,
					"id" : "obj-109",
					"linecount" : 7,
					"maxclass" : "newobj",
					"numinlets" : 1,
					"numoutlets" : 3,
					"outlettype" : [ "int", "bang", "" ],
					"patching_rect" : [ 744.0, 474.0, 83.0, 79.0 ],
					"text" : "seq \"~:Documents/UM_stuff/510 History of PAT/midi_from_davis/short/short10e.mid\""
				}

			}
, 			{
				"box" : 				{
					"blinkcolor" : [ 0.094117647058824, 0.76078431372549, 0.294117647058824, 1.0 ],
					"id" : "obj-110",
					"maxclass" : "button",
					"numinlets" : 1,
					"numoutlets" : 1,
					"outlettype" : [ "bang" ],
					"parameter_enable" : 0,
					"patching_rect" : [ 651.0, 441.0, 24.0, 24.0 ]
				}

			}
, 			{
				"box" : 				{
					"id" : "obj-111",
					"maxclass" : "newobj",
					"numinlets" : 2,
					"numoutlets" : 2,
					"outlettype" : [ "bang", "" ],
					"patching_rect" : [ 599.0, 442.0, 41.0, 22.0 ],
					"text" : "sel 21"
				}

			}
, 			{
				"box" : 				{
					"blinkcolor" : [ 1.0, 0.898039215686275, 0.011764705882353, 1.0 ],
					"id" : "obj-112",
					"maxclass" : "button",
					"numinlets" : 1,
					"numoutlets" : 1,
					"outlettype" : [ "bang" ],
					"parameter_enable" : 0,
					"patching_rect" : [ 688.0, 492.0, 20.0, 20.0 ]
				}

			}
, 			{
				"box" : 				{
					"fontsize" : 9.0,
					"id" : "obj-113",
					"linecount" : 7,
					"maxclass" : "newobj",
					"numinlets" : 1,
					"numoutlets" : 3,
					"outlettype" : [ "int", "bang", "" ],
					"patching_rect" : [ 592.0, 474.0, 83.0, 79.0 ],
					"text" : "seq \"~:Documents/UM_stuff/510 History of PAT/midi_from_davis/short/short9e.mid\""
				}

			}
, 			{
				"box" : 				{
					"blinkcolor" : [ 0.094117647058824, 0.76078431372549, 0.294117647058824, 1.0 ],
					"id" : "obj-76",
					"maxclass" : "button",
					"numinlets" : 1,
					"numoutlets" : 1,
					"outlettype" : [ "bang" ],
					"parameter_enable" : 0,
					"patching_rect" : [ 1111.0, 291.0, 24.0, 24.0 ]
				}

			}
, 			{
				"box" : 				{
					"id" : "obj-77",
					"maxclass" : "newobj",
					"numinlets" : 2,
					"numoutlets" : 2,
					"outlettype" : [ "bang", "" ],
					"patching_rect" : [ 1059.0, 292.0, 41.0, 22.0 ],
					"text" : "sel 34"
				}

			}
, 			{
				"box" : 				{
					"blinkcolor" : [ 1.0, 0.898039215686275, 0.011764705882353, 1.0 ],
					"id" : "obj-78",
					"maxclass" : "button",
					"numinlets" : 1,
					"numoutlets" : 1,
					"outlettype" : [ "bang" ],
					"parameter_enable" : 0,
					"patching_rect" : [ 1148.0, 342.0, 20.0, 20.0 ]
				}

			}
, 			{
				"box" : 				{
					"fontsize" : 9.0,
					"id" : "obj-79",
					"linecount" : 7,
					"maxclass" : "newobj",
					"numinlets" : 1,
					"numoutlets" : 3,
					"outlettype" : [ "int", "bang", "" ],
					"patching_rect" : [ 1052.0, 324.0, 83.0, 79.0 ],
					"text" : "seq \"~:Documents/UM_stuff/510 History of PAT/midi_from_davis/short/short8e.mid\""
				}

			}
, 			{
				"box" : 				{
					"blinkcolor" : [ 0.094117647058824, 0.76078431372549, 0.294117647058824, 1.0 ],
					"id" : "obj-71",
					"maxclass" : "button",
					"numinlets" : 1,
					"numoutlets" : 1,
					"outlettype" : [ "bang" ],
					"parameter_enable" : 0,
					"patching_rect" : [ 958.0, 291.0, 24.0, 24.0 ]
				}

			}
, 			{
				"box" : 				{
					"id" : "obj-72",
					"maxclass" : "newobj",
					"numinlets" : 2,
					"numoutlets" : 2,
					"outlettype" : [ "bang", "" ],
					"patching_rect" : [ 906.0, 292.0, 41.0, 22.0 ],
					"text" : "sel 33"
				}

			}
, 			{
				"box" : 				{
					"blinkcolor" : [ 1.0, 0.898039215686275, 0.011764705882353, 1.0 ],
					"id" : "obj-73",
					"maxclass" : "button",
					"numinlets" : 1,
					"numoutlets" : 1,
					"outlettype" : [ "bang" ],
					"parameter_enable" : 0,
					"patching_rect" : [ 995.0, 342.0, 20.0, 20.0 ]
				}

			}
, 			{
				"box" : 				{
					"fontsize" : 9.0,
					"id" : "obj-74",
					"linecount" : 7,
					"maxclass" : "newobj",
					"numinlets" : 1,
					"numoutlets" : 3,
					"outlettype" : [ "int", "bang", "" ],
					"patching_rect" : [ 899.0, 324.0, 77.0, 79.0 ],
					"text" : "seq \"~:Documents/UM_stuff/510 History of PAT/midi_from_davis/short/short7e.mid\""
				}

			}
, 			{
				"box" : 				{
					"blinkcolor" : [ 0.094117647058824, 0.76078431372549, 0.294117647058824, 1.0 ],
					"id" : "obj-66",
					"maxclass" : "button",
					"numinlets" : 1,
					"numoutlets" : 1,
					"outlettype" : [ "bang" ],
					"parameter_enable" : 0,
					"patching_rect" : [ 803.0, 288.0, 24.0, 24.0 ]
				}

			}
, 			{
				"box" : 				{
					"id" : "obj-67",
					"maxclass" : "newobj",
					"numinlets" : 2,
					"numoutlets" : 2,
					"outlettype" : [ "bang", "" ],
					"patching_rect" : [ 751.0, 289.0, 41.0, 22.0 ],
					"text" : "sel 32"
				}

			}
, 			{
				"box" : 				{
					"blinkcolor" : [ 1.0, 0.898039215686275, 0.011764705882353, 1.0 ],
					"id" : "obj-68",
					"maxclass" : "button",
					"numinlets" : 1,
					"numoutlets" : 1,
					"outlettype" : [ "bang" ],
					"parameter_enable" : 0,
					"patching_rect" : [ 840.0, 339.0, 20.0, 20.0 ]
				}

			}
, 			{
				"box" : 				{
					"fontsize" : 9.0,
					"id" : "obj-69",
					"linecount" : 7,
					"maxclass" : "newobj",
					"numinlets" : 1,
					"numoutlets" : 3,
					"outlettype" : [ "int", "bang", "" ],
					"patching_rect" : [ 744.0, 321.0, 79.0, 79.0 ],
					"text" : "seq \"~:Documents/UM_stuff/510 History of PAT/midi_from_davis/short/short6e.mid\""
				}

			}
, 			{
				"box" : 				{
					"blinkcolor" : [ 0.094117647058824, 0.76078431372549, 0.294117647058824, 1.0 ],
					"id" : "obj-60",
					"maxclass" : "button",
					"numinlets" : 1,
					"numoutlets" : 1,
					"outlettype" : [ "bang" ],
					"parameter_enable" : 0,
					"patching_rect" : [ 651.0, 285.0, 24.0, 24.0 ]
				}

			}
, 			{
				"box" : 				{
					"id" : "obj-62",
					"maxclass" : "newobj",
					"numinlets" : 2,
					"numoutlets" : 2,
					"outlettype" : [ "bang", "" ],
					"patching_rect" : [ 599.0, 286.0, 41.0, 22.0 ],
					"text" : "sel 31"
				}

			}
, 			{
				"box" : 				{
					"blinkcolor" : [ 1.0, 0.898039215686275, 0.011764705882353, 1.0 ],
					"id" : "obj-63",
					"maxclass" : "button",
					"numinlets" : 1,
					"numoutlets" : 1,
					"outlettype" : [ "bang" ],
					"parameter_enable" : 0,
					"patching_rect" : [ 688.0, 336.0, 20.0, 20.0 ]
				}

			}
, 			{
				"box" : 				{
					"fontsize" : 9.0,
					"id" : "obj-64",
					"linecount" : 7,
					"maxclass" : "newobj",
					"numinlets" : 1,
					"numoutlets" : 3,
					"outlettype" : [ "int", "bang", "" ],
					"patching_rect" : [ 592.0, 318.0, 83.0, 79.0 ],
					"text" : "seq \"~:Documents/UM_stuff/510 History of PAT/midi_from_davis/short/short5e.mid\""
				}

			}
, 			{
				"box" : 				{
					"blinkcolor" : [ 0.094117647058824, 0.76078431372549, 0.294117647058824, 1.0 ],
					"id" : "obj-55",
					"maxclass" : "button",
					"numinlets" : 1,
					"numoutlets" : 1,
					"outlettype" : [ "bang" ],
					"parameter_enable" : 0,
					"patching_rect" : [ 1111.0, 135.0, 24.0, 24.0 ]
				}

			}
, 			{
				"box" : 				{
					"id" : "obj-56",
					"maxclass" : "newobj",
					"numinlets" : 2,
					"numoutlets" : 2,
					"outlettype" : [ "bang", "" ],
					"patching_rect" : [ 1059.0, 136.0, 41.0, 22.0 ],
					"text" : "sel 44"
				}

			}
, 			{
				"box" : 				{
					"blinkcolor" : [ 1.0, 0.898039215686275, 0.011764705882353, 1.0 ],
					"id" : "obj-57",
					"maxclass" : "button",
					"numinlets" : 1,
					"numoutlets" : 1,
					"outlettype" : [ "bang" ],
					"parameter_enable" : 0,
					"patching_rect" : [ 1148.0, 186.0, 20.0, 20.0 ]
				}

			}
, 			{
				"box" : 				{
					"fontsize" : 9.0,
					"id" : "obj-58",
					"linecount" : 7,
					"maxclass" : "newobj",
					"numinlets" : 1,
					"numoutlets" : 3,
					"outlettype" : [ "int", "bang", "" ],
					"patching_rect" : [ 1052.0, 168.0, 83.0, 79.0 ],
					"text" : "seq \"~:Documents/UM_stuff/510 History of PAT/midi_from_davis/short/short4e.mid\""
				}

			}
, 			{
				"box" : 				{
					"blinkcolor" : [ 0.094117647058824, 0.76078431372549, 0.294117647058824, 1.0 ],
					"id" : "obj-45",
					"maxclass" : "button",
					"numinlets" : 1,
					"numoutlets" : 1,
					"outlettype" : [ "bang" ],
					"parameter_enable" : 0,
					"patching_rect" : [ 958.0, 135.0, 24.0, 24.0 ]
				}

			}
, 			{
				"box" : 				{
					"id" : "obj-46",
					"maxclass" : "newobj",
					"numinlets" : 2,
					"numoutlets" : 2,
					"outlettype" : [ "bang", "" ],
					"patching_rect" : [ 906.0, 136.0, 41.0, 22.0 ],
					"text" : "sel 43"
				}

			}
, 			{
				"box" : 				{
					"blinkcolor" : [ 1.0, 0.898039215686275, 0.011764705882353, 1.0 ],
					"id" : "obj-47",
					"maxclass" : "button",
					"numinlets" : 1,
					"numoutlets" : 1,
					"outlettype" : [ "bang" ],
					"parameter_enable" : 0,
					"patching_rect" : [ 995.0, 186.0, 20.0, 20.0 ]
				}

			}
, 			{
				"box" : 				{
					"fontsize" : 9.0,
					"id" : "obj-48",
					"linecount" : 7,
					"maxclass" : "newobj",
					"numinlets" : 1,
					"numoutlets" : 3,
					"outlettype" : [ "int", "bang", "" ],
					"patching_rect" : [ 899.0, 168.0, 83.0, 79.0 ],
					"text" : "seq \"~:Documents/UM_stuff/510 History of PAT/midi_from_davis/short/short3e.mid\""
				}

			}
, 			{
				"box" : 				{
					"blinkcolor" : [ 0.094117647058824, 0.76078431372549, 0.294117647058824, 1.0 ],
					"id" : "obj-40",
					"maxclass" : "button",
					"numinlets" : 1,
					"numoutlets" : 1,
					"outlettype" : [ "bang" ],
					"parameter_enable" : 0,
					"patching_rect" : [ 803.0, 135.0, 24.0, 24.0 ]
				}

			}
, 			{
				"box" : 				{
					"id" : "obj-41",
					"maxclass" : "newobj",
					"numinlets" : 2,
					"numoutlets" : 2,
					"outlettype" : [ "bang", "" ],
					"patching_rect" : [ 751.0, 136.0, 41.0, 22.0 ],
					"text" : "sel 42"
				}

			}
, 			{
				"box" : 				{
					"blinkcolor" : [ 1.0, 0.898039215686275, 0.011764705882353, 1.0 ],
					"id" : "obj-42",
					"maxclass" : "button",
					"numinlets" : 1,
					"numoutlets" : 1,
					"outlettype" : [ "bang" ],
					"parameter_enable" : 0,
					"patching_rect" : [ 840.0, 186.0, 20.0, 20.0 ]
				}

			}
, 			{
				"box" : 				{
					"fontsize" : 9.0,
					"id" : "obj-43",
					"linecount" : 7,
					"maxclass" : "newobj",
					"numinlets" : 1,
					"numoutlets" : 3,
					"outlettype" : [ "int", "bang", "" ],
					"patching_rect" : [ 744.0, 168.0, 79.0, 79.0 ],
					"text" : "seq \"~:Documents/UM_stuff/510 History of PAT/midi_from_davis/short/short5e.mid\""
				}

			}
, 			{
				"box" : 				{
					"blinkcolor" : [ 0.094117647058824, 0.76078431372549, 0.294117647058824, 1.0 ],
					"id" : "obj-22",
					"maxclass" : "button",
					"numinlets" : 1,
					"numoutlets" : 1,
					"outlettype" : [ "bang" ],
					"parameter_enable" : 0,
					"patching_rect" : [ 651.0, 135.0, 24.0, 24.0 ]
				}

			}
, 			{
				"box" : 				{
					"id" : "obj-19",
					"maxclass" : "newobj",
					"numinlets" : 2,
					"numoutlets" : 2,
					"outlettype" : [ "bang", "" ],
					"patching_rect" : [ 599.0, 136.0, 41.0, 22.0 ],
					"text" : "sel 41"
				}

			}
, 			{
				"box" : 				{
					"blinkcolor" : [ 1.0, 0.898039215686275, 0.011764705882353, 1.0 ],
					"id" : "obj-61",
					"maxclass" : "button",
					"numinlets" : 1,
					"numoutlets" : 1,
					"outlettype" : [ "bang" ],
					"parameter_enable" : 0,
					"patching_rect" : [ 688.0, 186.0, 20.0, 20.0 ]
				}

			}
, 			{
				"box" : 				{
					"fontsize" : 9.0,
					"id" : "obj-18",
					"linecount" : 7,
					"maxclass" : "newobj",
					"numinlets" : 1,
					"numoutlets" : 3,
					"outlettype" : [ "int", "bang", "" ],
					"patching_rect" : [ 592.0, 168.0, 83.0, 79.0 ],
					"text" : "seq \"~:Documents/UM_stuff/510 History of PAT/midi_from_davis/short/short1e.mid\""
				}

			}
, 			{
				"box" : 				{
					"comment" : "",
					"id" : "obj-17",
					"index" : 1,
					"maxclass" : "outlet",
					"numinlets" : 1,
					"numoutlets" : 0,
					"patching_rect" : [ 395.0, 639.0, 82.0, 82.0 ],
					"tricolor" : [ 1.0, 0.035294117647059, 0.556862745098039, 1.0 ]
				}

			}
, 			{
				"box" : 				{
					"id" : "obj-16",
					"maxclass" : "comment",
					"numinlets" : 1,
					"numoutlets" : 0,
					"patching_rect" : [ 242.0, 194.0, 92.0, 20.0 ],
					"text" : "pad # pressed"
				}

			}
, 			{
				"box" : 				{
					"id" : "obj-12",
					"maxclass" : "message",
					"numinlets" : 2,
					"numoutlets" : 1,
					"outlettype" : [ "" ],
					"patching_rect" : [ 263.0, 169.0, 50.0, 22.0 ],
					"text" : "24"
				}

			}
, 			{
				"box" : 				{
					"id" : "obj-10",
					"linecount" : 4,
					"maxclass" : "newobj",
					"numinlets" : 1,
					"numoutlets" : 2,
					"outlettype" : [ "", "" ],
					"patching_rect" : [ 136.0, 89.0, 197.0, 62.0 ],
					"text" : "if (($i1 >=11) & ($i1 <= 14)) || (($i1 >= 21) & ($i1 <= 24) || (($i1 >= 31) & ($i1 <= 34)) || (($i1 >= 41) & ($i1 <= 44))) then $i1 else out2 $i1"
				}

			}
, 			{
				"box" : 				{
					"id" : "obj-35",
					"knobcolor" : [ 1.0, 0.898039215686275, 0.011764705882353, 1.0 ],
					"maxclass" : "slider",
					"numinlets" : 1,
					"numoutlets" : 1,
					"outlettype" : [ "" ],
					"parameter_enable" : 0,
					"patching_rect" : [ 399.0, 108.0, 146.0, 25.0 ]
				}

			}
, 			{
				"box" : 				{
					"id" : "obj-7",
					"maxclass" : "message",
					"numinlets" : 2,
					"numoutlets" : 1,
					"outlettype" : [ "" ],
					"patching_rect" : [ 434.0, 77.0, 50.0, 22.0 ],
					"text" : "0"
				}

			}
, 			{
				"box" : 				{
					"comment" : "",
					"id" : "obj-5",
					"index" : 3,
					"maxclass" : "inlet",
					"numinlets" : 0,
					"numoutlets" : 1,
					"outlettype" : [ "" ],
					"patching_rect" : [ 439.0, 32.0, 30.0, 30.0 ],
					"tricolor" : [ 0.925490196078431, 0.533333333333333, 0.0, 1.0 ]
				}

			}
, 			{
				"box" : 				{
					"comment" : "",
					"id" : "obj-2",
					"index" : 2,
					"maxclass" : "inlet",
					"numinlets" : 0,
					"numoutlets" : 1,
					"outlettype" : [ "" ],
					"patching_rect" : [ 136.0, 35.0, 30.0, 30.0 ],
					"tricolor" : [ 0.094117647058824, 0.76078431372549, 0.294117647058824, 1.0 ]
				}

			}
, 			{
				"box" : 				{
					"blinkcolor" : [ 1.0, 0.898039215686275, 0.011764705882353, 1.0 ],
					"id" : "obj-83",
					"maxclass" : "button",
					"numinlets" : 1,
					"numoutlets" : 1,
					"outlettype" : [ "bang" ],
					"parameter_enable" : 0,
					"patching_rect" : [ 57.0, 83.0, 24.0, 24.0 ]
				}

			}
, 			{
				"box" : 				{
					"comment" : "",
					"id" : "obj-1",
					"index" : 1,
					"maxclass" : "inlet",
					"numinlets" : 0,
					"numoutlets" : 1,
					"outlettype" : [ "bang" ],
					"patching_rect" : [ 57.0, 35.0, 30.0, 30.0 ],
					"tricolor" : [ 1.0, 0.898039215686275, 0.011764705882353, 1.0 ]
				}

			}
, 			{
				"box" : 				{
					"angle" : 270.0,
					"background" : 1,
					"bgcolor" : [ 0.094117647058824, 0.76078431372549, 0.294117647058824, 1.0 ],
					"bordercolor" : [ 0.094117647058824, 0.76078431372549, 0.294117647058824, 1.0 ],
					"id" : "obj-23",
					"maxclass" : "panel",
					"mode" : 0,
					"numinlets" : 1,
					"numoutlets" : 0,
					"patching_rect" : [ 583.0, 121.0, 139.0, 144.0 ],
					"proportion" : 0.5
				}

			}
, 			{
				"box" : 				{
					"angle" : 270.0,
					"background" : 1,
					"bgcolor" : [ 1.0, 0.898039215686275, 0.011764705882353, 1.0 ],
					"bordercolor" : [ 1.0, 0.898039215686275, 0.011764705882353, 1.0 ],
					"id" : "obj-44",
					"maxclass" : "panel",
					"mode" : 0,
					"numinlets" : 1,
					"numoutlets" : 0,
					"patching_rect" : [ 735.0, 121.0, 139.0, 144.0 ],
					"proportion" : 0.5
				}

			}
, 			{
				"box" : 				{
					"angle" : 270.0,
					"background" : 1,
					"bgcolor" : [ 0.094117647058824, 0.76078431372549, 0.294117647058824, 1.0 ],
					"bordercolor" : [ 0.094117647058824, 0.76078431372549, 0.294117647058824, 1.0 ],
					"id" : "obj-49",
					"maxclass" : "panel",
					"mode" : 0,
					"numinlets" : 1,
					"numoutlets" : 0,
					"patching_rect" : [ 890.0, 121.0, 139.0, 144.0 ],
					"proportion" : 0.5
				}

			}
, 			{
				"box" : 				{
					"angle" : 270.0,
					"background" : 1,
					"bgcolor" : [ 1.0, 0.0, 0.0, 1.0 ],
					"bordercolor" : [ 1.0, 0.0, 0.0, 1.0 ],
					"id" : "obj-59",
					"maxclass" : "panel",
					"mode" : 0,
					"numinlets" : 1,
					"numoutlets" : 0,
					"patching_rect" : [ 1043.0, 121.0, 139.0, 144.0 ],
					"proportion" : 0.5
				}

			}
, 			{
				"box" : 				{
					"angle" : 270.0,
					"background" : 1,
					"bgcolor" : [ 0.094117647058824, 0.76078431372549, 0.294117647058824, 1.0 ],
					"bordercolor" : [ 0.094117647058824, 0.76078431372549, 0.294117647058824, 1.0 ],
					"id" : "obj-80",
					"maxclass" : "panel",
					"mode" : 0,
					"numinlets" : 1,
					"numoutlets" : 0,
					"patching_rect" : [ 1043.0, 277.0, 139.0, 144.0 ],
					"proportion" : 0.5
				}

			}
, 			{
				"box" : 				{
					"angle" : 270.0,
					"background" : 1,
					"bgcolor" : [ 1.0, 0.898039215686275, 0.011764705882353, 1.0 ],
					"bordercolor" : [ 1.0, 0.898039215686275, 0.011764705882353, 1.0 ],
					"id" : "obj-75",
					"maxclass" : "panel",
					"mode" : 0,
					"numinlets" : 1,
					"numoutlets" : 0,
					"patching_rect" : [ 890.0, 277.0, 139.0, 144.0 ],
					"proportion" : 0.5
				}

			}
, 			{
				"box" : 				{
					"angle" : 270.0,
					"background" : 1,
					"bgcolor" : [ 0.094117647058824, 0.76078431372549, 0.294117647058824, 1.0 ],
					"bordercolor" : [ 0.094117647058824, 0.76078431372549, 0.294117647058824, 1.0 ],
					"id" : "obj-70",
					"maxclass" : "panel",
					"mode" : 0,
					"numinlets" : 1,
					"numoutlets" : 0,
					"patching_rect" : [ 735.0, 274.0, 139.0, 144.0 ],
					"proportion" : 0.5
				}

			}
, 			{
				"box" : 				{
					"angle" : 270.0,
					"background" : 1,
					"bgcolor" : [ 1.0, 0.0, 0.0, 1.0 ],
					"bordercolor" : [ 1.0, 0.0, 0.0, 1.0 ],
					"id" : "obj-65",
					"maxclass" : "panel",
					"mode" : 0,
					"numinlets" : 1,
					"numoutlets" : 0,
					"patching_rect" : [ 583.0, 271.0, 139.0, 144.0 ],
					"proportion" : 0.5
				}

			}
, 			{
				"box" : 				{
					"angle" : 270.0,
					"background" : 1,
					"bgcolor" : [ 0.094117647058824, 0.76078431372549, 0.294117647058824, 1.0 ],
					"bordercolor" : [ 0.094117647058824, 0.76078431372549, 0.294117647058824, 1.0 ],
					"id" : "obj-114",
					"maxclass" : "panel",
					"mode" : 0,
					"numinlets" : 1,
					"numoutlets" : 0,
					"patching_rect" : [ 583.0, 427.0, 139.0, 144.0 ],
					"proportion" : 0.5
				}

			}
, 			{
				"box" : 				{
					"angle" : 270.0,
					"background" : 1,
					"bgcolor" : [ 1.0, 0.0, 0.0, 1.0 ],
					"bordercolor" : [ 1.0, 0.0, 0.0, 1.0 ],
					"id" : "obj-115",
					"maxclass" : "panel",
					"mode" : 0,
					"numinlets" : 1,
					"numoutlets" : 0,
					"patching_rect" : [ 735.0, 427.0, 139.0, 144.0 ],
					"proportion" : 0.5
				}

			}
, 			{
				"box" : 				{
					"angle" : 270.0,
					"background" : 1,
					"bgcolor" : [ 0.094117647058824, 0.76078431372549, 0.294117647058824, 1.0 ],
					"bordercolor" : [ 0.094117647058824, 0.76078431372549, 0.294117647058824, 1.0 ],
					"id" : "obj-116",
					"maxclass" : "panel",
					"mode" : 0,
					"numinlets" : 1,
					"numoutlets" : 0,
					"patching_rect" : [ 890.0, 427.0, 139.0, 144.0 ],
					"proportion" : 0.5
				}

			}
, 			{
				"box" : 				{
					"angle" : 270.0,
					"background" : 1,
					"bgcolor" : [ 1.0, 0.898039215686275, 0.011764705882353, 1.0 ],
					"bordercolor" : [ 1.0, 0.898039215686275, 0.011764705882353, 1.0 ],
					"id" : "obj-117",
					"maxclass" : "panel",
					"mode" : 0,
					"numinlets" : 1,
					"numoutlets" : 0,
					"patching_rect" : [ 1043.0, 427.0, 139.0, 144.0 ],
					"proportion" : 0.5
				}

			}
, 			{
				"box" : 				{
					"angle" : 270.0,
					"background" : 1,
					"bgcolor" : [ 0.094117647058824, 0.76078431372549, 0.294117647058824, 1.0 ],
					"bordercolor" : [ 0.094117647058824, 0.76078431372549, 0.294117647058824, 1.0 ],
					"id" : "obj-118",
					"maxclass" : "panel",
					"mode" : 0,
					"numinlets" : 1,
					"numoutlets" : 0,
					"patching_rect" : [ 1043.0, 583.0, 139.0, 144.0 ],
					"proportion" : 0.5
				}

			}
, 			{
				"box" : 				{
					"angle" : 270.0,
					"background" : 1,
					"bgcolor" : [ 1.0, 0.0, 0.0, 1.0 ],
					"bordercolor" : [ 1.0, 0.0, 0.0, 1.0 ],
					"id" : "obj-119",
					"maxclass" : "panel",
					"mode" : 0,
					"numinlets" : 1,
					"numoutlets" : 0,
					"patching_rect" : [ 890.0, 583.0, 139.0, 144.0 ],
					"proportion" : 0.5
				}

			}
, 			{
				"box" : 				{
					"angle" : 270.0,
					"background" : 1,
					"bgcolor" : [ 0.094117647058824, 0.76078431372549, 0.294117647058824, 1.0 ],
					"bordercolor" : [ 0.094117647058824, 0.76078431372549, 0.294117647058824, 1.0 ],
					"id" : "obj-120",
					"maxclass" : "panel",
					"mode" : 0,
					"numinlets" : 1,
					"numoutlets" : 0,
					"patching_rect" : [ 735.0, 580.0, 139.0, 144.0 ],
					"proportion" : 0.5
				}

			}
, 			{
				"box" : 				{
					"angle" : 270.0,
					"background" : 1,
					"bgcolor" : [ 1.0, 0.898039215686275, 0.011764705882353, 1.0 ],
					"bordercolor" : [ 1.0, 0.898039215686275, 0.011764705882353, 1.0 ],
					"id" : "obj-121",
					"maxclass" : "panel",
					"mode" : 0,
					"numinlets" : 1,
					"numoutlets" : 0,
					"patching_rect" : [ 583.0, 577.0, 139.0, 144.0 ],
					"proportion" : 0.5
				}

			}
 ],
		"lines" : [ 			{
				"patchline" : 				{
					"destination" : [ "obj-83", 0 ],
					"midpoints" : [ 66.5, 66.0, 66.5, 66.0 ],
					"source" : [ "obj-1", 0 ]
				}

			}
, 			{
				"patchline" : 				{
					"destination" : [ "obj-103", 0 ],
					"midpoints" : [ 145.5, 423.0, 885.0, 423.0, 885.0, 438.0, 915.5, 438.0 ],
					"order" : 5,
					"source" : [ "obj-10", 0 ]
				}

			}
, 			{
				"patchline" : 				{
					"destination" : [ "obj-107", 0 ],
					"midpoints" : [ 145.5, 423.0, 732.0, 423.0, 732.0, 429.0, 760.5, 429.0 ],
					"order" : 9,
					"source" : [ "obj-10", 0 ]
				}

			}
, 			{
				"patchline" : 				{
					"destination" : [ "obj-111", 0 ],
					"midpoints" : [ 145.5, 429.0, 608.5, 429.0 ],
					"order" : 13,
					"source" : [ "obj-10", 0 ]
				}

			}
, 			{
				"patchline" : 				{
					"destination" : [ "obj-12", 1 ],
					"midpoints" : [ 145.5, 165.0, 303.5, 165.0 ],
					"order" : 16,
					"source" : [ "obj-10", 0 ]
				}

			}
, 			{
				"patchline" : 				{
					"destination" : [ "obj-19", 0 ],
					"midpoints" : [ 145.5, 162.0, 579.0, 162.0, 579.0, 132.0, 608.5, 132.0 ],
					"order" : 15,
					"source" : [ "obj-10", 0 ]
				}

			}
, 			{
				"patchline" : 				{
					"destination" : [ "obj-41", 0 ],
					"midpoints" : [ 145.5, 162.0, 570.0, 162.0, 570.0, 108.0, 760.5, 108.0 ],
					"order" : 11,
					"source" : [ "obj-10", 0 ]
				}

			}
, 			{
				"patchline" : 				{
					"destination" : [ "obj-46", 0 ],
					"midpoints" : [ 145.5, 162.0, 570.0, 162.0, 570.0, 108.0, 915.5, 108.0 ],
					"order" : 7,
					"source" : [ "obj-10", 0 ]
				}

			}
, 			{
				"patchline" : 				{
					"destination" : [ "obj-56", 0 ],
					"midpoints" : [ 145.5, 162.0, 570.0, 162.0, 570.0, 108.0, 1068.5, 108.0 ],
					"order" : 3,
					"source" : [ "obj-10", 0 ]
				}

			}
, 			{
				"patchline" : 				{
					"destination" : [ "obj-62", 0 ],
					"midpoints" : [ 145.5, 282.0, 608.5, 282.0 ],
					"order" : 14,
					"source" : [ "obj-10", 0 ]
				}

			}
, 			{
				"patchline" : 				{
					"destination" : [ "obj-67", 0 ],
					"midpoints" : [ 145.5, 267.0, 732.0, 267.0, 732.0, 276.0, 760.5, 276.0 ],
					"order" : 10,
					"source" : [ "obj-10", 0 ]
				}

			}
, 			{
				"patchline" : 				{
					"destination" : [ "obj-72", 0 ],
					"midpoints" : [ 145.5, 267.0, 885.0, 267.0, 885.0, 279.0, 915.5, 279.0 ],
					"order" : 6,
					"source" : [ "obj-10", 0 ]
				}

			}
, 			{
				"patchline" : 				{
					"destination" : [ "obj-77", 0 ],
					"midpoints" : [ 145.5, 162.0, 570.0, 162.0, 570.0, 108.0, 1038.0, 108.0, 1038.0, 276.0, 1068.5, 276.0 ],
					"order" : 2,
					"source" : [ "obj-10", 0 ]
				}

			}
, 			{
				"patchline" : 				{
					"destination" : [ "obj-82", 0 ],
					"midpoints" : [ 145.5, 162.0, 570.0, 162.0, 570.0, 108.0, 1194.0, 108.0, 1194.0, 582.0, 1068.5, 582.0 ],
					"order" : 0,
					"source" : [ "obj-10", 0 ]
				}

			}
, 			{
				"patchline" : 				{
					"destination" : [ "obj-87", 0 ],
					"midpoints" : [ 145.5, 735.0, 885.0, 735.0, 885.0, 594.0, 915.5, 594.0 ],
					"order" : 4,
					"source" : [ "obj-10", 0 ]
				}

			}
, 			{
				"patchline" : 				{
					"destination" : [ "obj-91", 0 ],
					"midpoints" : [ 145.5, 573.0, 732.0, 573.0, 732.0, 582.0, 760.5, 582.0 ],
					"order" : 8,
					"source" : [ "obj-10", 0 ]
				}

			}
, 			{
				"patchline" : 				{
					"destination" : [ "obj-95", 0 ],
					"midpoints" : [ 145.5, 588.0, 608.5, 588.0 ],
					"order" : 12,
					"source" : [ "obj-10", 0 ]
				}

			}
, 			{
				"patchline" : 				{
					"destination" : [ "obj-99", 0 ],
					"midpoints" : [ 145.5, 423.0, 1041.0, 423.0, 1041.0, 438.0, 1068.5, 438.0 ],
					"order" : 1,
					"source" : [ "obj-10", 0 ]
				}

			}
, 			{
				"patchline" : 				{
					"destination" : [ "obj-100", 0 ],
					"midpoints" : [ 1093.5, 564.0, 1146.0, 564.0, 1146.0, 513.0, 1143.0, 513.0, 1143.0, 489.0, 1157.5, 489.0 ],
					"order" : 0,
					"source" : [ "obj-101", 1 ]
				}

			}
, 			{
				"patchline" : 				{
					"destination" : [ "obj-17", 0 ],
					"midpoints" : [ 1061.5, 570.0, 1029.0, 570.0, 1029.0, 738.0, 696.0, 738.0, 696.0, 732.0, 489.0, 732.0, 489.0, 624.0, 404.5, 624.0 ],
					"source" : [ "obj-101", 0 ]
				}

			}
, 			{
				"patchline" : 				{
					"destination" : [ "obj-9", 0 ],
					"midpoints" : [ 1093.5, 570.0, 1038.0, 570.0, 1038.0, 744.0, 628.5, 744.0 ],
					"order" : 1,
					"source" : [ "obj-101", 1 ]
				}

			}
, 			{
				"patchline" : 				{
					"destination" : [ "obj-102", 0 ],
					"midpoints" : [ 915.5, 465.0, 954.0, 465.0, 954.0, 438.0, 967.5, 438.0 ],
					"order" : 0,
					"source" : [ "obj-103", 0 ]
				}

			}
, 			{
				"patchline" : 				{
					"destination" : [ "obj-105", 0 ],
					"midpoints" : [ 915.5, 465.0, 908.5, 465.0 ],
					"order" : 1,
					"source" : [ "obj-103", 0 ]
				}

			}
, 			{
				"patchline" : 				{
					"destination" : [ "obj-104", 0 ],
					"midpoints" : [ 940.5, 564.0, 993.0, 564.0, 993.0, 513.0, 990.0, 513.0, 990.0, 489.0, 1004.5, 489.0 ],
					"order" : 0,
					"source" : [ "obj-105", 1 ]
				}

			}
, 			{
				"patchline" : 				{
					"destination" : [ "obj-17", 0 ],
					"midpoints" : [ 908.5, 570.0, 876.0, 570.0, 876.0, 573.0, 404.5, 573.0 ],
					"source" : [ "obj-105", 0 ]
				}

			}
, 			{
				"patchline" : 				{
					"destination" : [ "obj-9", 0 ],
					"midpoints" : [ 940.5, 570.0, 876.0, 570.0, 876.0, 735.0, 628.5, 735.0 ],
					"order" : 1,
					"source" : [ "obj-105", 1 ]
				}

			}
, 			{
				"patchline" : 				{
					"destination" : [ "obj-106", 0 ],
					"midpoints" : [ 760.5, 465.0, 798.0, 465.0, 798.0, 438.0, 812.5, 438.0 ],
					"order" : 0,
					"source" : [ "obj-107", 0 ]
				}

			}
, 			{
				"patchline" : 				{
					"destination" : [ "obj-109", 0 ],
					"midpoints" : [ 760.5, 465.0, 753.5, 465.0 ],
					"order" : 1,
					"source" : [ "obj-107", 0 ]
				}

			}
, 			{
				"patchline" : 				{
					"destination" : [ "obj-108", 0 ],
					"midpoints" : [ 785.5, 564.0, 837.0, 564.0, 837.0, 489.0, 849.5, 489.0 ],
					"order" : 0,
					"source" : [ "obj-109", 1 ]
				}

			}
, 			{
				"patchline" : 				{
					"destination" : [ "obj-17", 0 ],
					"midpoints" : [ 753.5, 567.0, 723.0, 567.0, 723.0, 573.0, 404.5, 573.0 ],
					"source" : [ "obj-109", 0 ]
				}

			}
, 			{
				"patchline" : 				{
					"destination" : [ "obj-9", 0 ],
					"midpoints" : [ 785.5, 567.0, 732.0, 567.0, 732.0, 735.0, 628.5, 735.0 ],
					"order" : 1,
					"source" : [ "obj-109", 1 ]
				}

			}
, 			{
				"patchline" : 				{
					"destination" : [ "obj-110", 0 ],
					"midpoints" : [ 608.5, 465.0, 648.0, 465.0, 648.0, 438.0, 660.5, 438.0 ],
					"order" : 0,
					"source" : [ "obj-111", 0 ]
				}

			}
, 			{
				"patchline" : 				{
					"destination" : [ "obj-113", 0 ],
					"midpoints" : [ 608.5, 465.0, 601.5, 465.0 ],
					"order" : 1,
					"source" : [ "obj-111", 0 ]
				}

			}
, 			{
				"patchline" : 				{
					"destination" : [ "obj-112", 0 ],
					"midpoints" : [ 633.5, 564.0, 687.0, 564.0, 687.0, 513.0, 684.0, 513.0, 684.0, 489.0, 697.5, 489.0 ],
					"order" : 0,
					"source" : [ "obj-113", 1 ]
				}

			}
, 			{
				"patchline" : 				{
					"destination" : [ "obj-17", 0 ],
					"midpoints" : [ 601.5, 564.0, 404.5, 564.0 ],
					"source" : [ "obj-113", 0 ]
				}

			}
, 			{
				"patchline" : 				{
					"destination" : [ "obj-9", 0 ],
					"midpoints" : [ 633.5, 564.0, 570.0, 564.0, 570.0, 735.0, 628.5, 735.0 ],
					"order" : 1,
					"source" : [ "obj-113", 1 ]
				}

			}
, 			{
				"patchline" : 				{
					"destination" : [ "obj-17", 0 ],
					"midpoints" : [ 601.5, 258.0, 404.5, 258.0 ],
					"source" : [ "obj-18", 0 ]
				}

			}
, 			{
				"patchline" : 				{
					"destination" : [ "obj-61", 0 ],
					"midpoints" : [ 633.5, 258.0, 687.0, 258.0, 687.0, 207.0, 684.0, 207.0, 684.0, 183.0, 697.5, 183.0 ],
					"order" : 0,
					"source" : [ "obj-18", 1 ]
				}

			}
, 			{
				"patchline" : 				{
					"destination" : [ "obj-9", 0 ],
					"midpoints" : [ 633.5, 258.0, 570.0, 258.0, 570.0, 735.0, 628.5, 735.0 ],
					"order" : 1,
					"source" : [ "obj-18", 1 ]
				}

			}
, 			{
				"patchline" : 				{
					"destination" : [ "obj-18", 0 ],
					"midpoints" : [ 608.5, 159.0, 601.5, 159.0 ],
					"order" : 1,
					"source" : [ "obj-19", 0 ]
				}

			}
, 			{
				"patchline" : 				{
					"destination" : [ "obj-22", 0 ],
					"midpoints" : [ 608.5, 159.0, 648.0, 159.0, 648.0, 132.0, 660.5, 132.0 ],
					"order" : 0,
					"source" : [ "obj-19", 0 ]
				}

			}
, 			{
				"patchline" : 				{
					"destination" : [ "obj-10", 0 ],
					"midpoints" : [ 145.5, 66.0, 145.5, 66.0 ],
					"source" : [ "obj-2", 0 ]
				}

			}
, 			{
				"patchline" : 				{
					"destination" : [ "obj-40", 0 ],
					"midpoints" : [ 760.5, 159.0, 798.0, 159.0, 798.0, 132.0, 812.5, 132.0 ],
					"order" : 0,
					"source" : [ "obj-41", 0 ]
				}

			}
, 			{
				"patchline" : 				{
					"destination" : [ "obj-43", 0 ],
					"midpoints" : [ 760.5, 159.0, 753.5, 159.0 ],
					"order" : 1,
					"source" : [ "obj-41", 0 ]
				}

			}
, 			{
				"patchline" : 				{
					"destination" : [ "obj-17", 0 ],
					"midpoints" : [ 753.5, 261.0, 723.0, 261.0, 723.0, 267.0, 404.5, 267.0 ],
					"source" : [ "obj-43", 0 ]
				}

			}
, 			{
				"patchline" : 				{
					"destination" : [ "obj-42", 0 ],
					"midpoints" : [ 783.5, 258.0, 837.0, 258.0, 837.0, 183.0, 849.5, 183.0 ],
					"order" : 0,
					"source" : [ "obj-43", 1 ]
				}

			}
, 			{
				"patchline" : 				{
					"destination" : [ "obj-9", 0 ],
					"midpoints" : [ 783.5, 261.0, 723.0, 261.0, 723.0, 267.0, 570.0, 267.0, 570.0, 735.0, 628.5, 735.0 ],
					"order" : 1,
					"source" : [ "obj-43", 1 ]
				}

			}
, 			{
				"patchline" : 				{
					"destination" : [ "obj-45", 0 ],
					"midpoints" : [ 915.5, 159.0, 954.0, 159.0, 954.0, 132.0, 967.5, 132.0 ],
					"order" : 0,
					"source" : [ "obj-46", 0 ]
				}

			}
, 			{
				"patchline" : 				{
					"destination" : [ "obj-48", 0 ],
					"midpoints" : [ 915.5, 159.0, 908.5, 159.0 ],
					"order" : 1,
					"source" : [ "obj-46", 0 ]
				}

			}
, 			{
				"patchline" : 				{
					"destination" : [ "obj-17", 0 ],
					"midpoints" : [ 908.5, 249.0, 885.0, 249.0, 885.0, 108.0, 555.0, 108.0, 555.0, 624.0, 404.5, 624.0 ],
					"source" : [ "obj-48", 0 ]
				}

			}
, 			{
				"patchline" : 				{
					"destination" : [ "obj-47", 0 ],
					"midpoints" : [ 940.5, 258.0, 993.0, 258.0, 993.0, 207.0, 990.0, 207.0, 990.0, 183.0, 1004.5, 183.0 ],
					"order" : 0,
					"source" : [ "obj-48", 1 ]
				}

			}
, 			{
				"patchline" : 				{
					"destination" : [ "obj-9", 0 ],
					"midpoints" : [ 940.5, 258.0, 885.0, 258.0, 885.0, 108.0, 570.0, 108.0, 570.0, 735.0, 628.5, 735.0 ],
					"order" : 1,
					"source" : [ "obj-48", 1 ]
				}

			}
, 			{
				"patchline" : 				{
					"destination" : [ "obj-35", 0 ],
					"midpoints" : [ 448.5, 63.0, 408.5, 63.0 ],
					"order" : 1,
					"source" : [ "obj-5", 0 ]
				}

			}
, 			{
				"patchline" : 				{
					"destination" : [ "obj-7", 1 ],
					"midpoints" : [ 448.5, 72.0, 474.5, 72.0 ],
					"order" : 0,
					"source" : [ "obj-5", 0 ]
				}

			}
, 			{
				"patchline" : 				{
					"destination" : [ "obj-55", 0 ],
					"midpoints" : [ 1068.5, 159.0, 1107.0, 159.0, 1107.0, 132.0, 1120.5, 132.0 ],
					"order" : 0,
					"source" : [ "obj-56", 0 ]
				}

			}
, 			{
				"patchline" : 				{
					"destination" : [ "obj-58", 0 ],
					"midpoints" : [ 1068.5, 159.0, 1061.5, 159.0 ],
					"order" : 1,
					"source" : [ "obj-56", 0 ]
				}

			}
, 			{
				"patchline" : 				{
					"destination" : [ "obj-17", 0 ],
					"midpoints" : [ 1061.5, 249.0, 1041.0, 249.0, 1041.0, 108.0, 555.0, 108.0, 555.0, 624.0, 404.5, 624.0 ],
					"source" : [ "obj-58", 0 ]
				}

			}
, 			{
				"patchline" : 				{
					"destination" : [ "obj-57", 0 ],
					"midpoints" : [ 1093.5, 258.0, 1146.0, 258.0, 1146.0, 207.0, 1143.0, 207.0, 1143.0, 183.0, 1157.5, 183.0 ],
					"order" : 0,
					"source" : [ "obj-58", 1 ]
				}

			}
, 			{
				"patchline" : 				{
					"destination" : [ "obj-9", 0 ],
					"midpoints" : [ 1093.5, 264.0, 1194.0, 264.0, 1194.0, 744.0, 628.5, 744.0 ],
					"order" : 1,
					"source" : [ "obj-58", 1 ]
				}

			}
, 			{
				"patchline" : 				{
					"destination" : [ "obj-60", 0 ],
					"midpoints" : [ 608.5, 309.0, 648.0, 309.0, 648.0, 282.0, 660.5, 282.0 ],
					"order" : 0,
					"source" : [ "obj-62", 0 ]
				}

			}
, 			{
				"patchline" : 				{
					"destination" : [ "obj-64", 0 ],
					"midpoints" : [ 608.5, 309.0, 601.5, 309.0 ],
					"order" : 1,
					"source" : [ "obj-62", 0 ]
				}

			}
, 			{
				"patchline" : 				{
					"destination" : [ "obj-17", 0 ],
					"midpoints" : [ 601.5, 414.0, 404.5, 414.0 ],
					"source" : [ "obj-64", 0 ]
				}

			}
, 			{
				"patchline" : 				{
					"destination" : [ "obj-63", 0 ],
					"midpoints" : [ 633.5, 408.0, 687.0, 408.0, 687.0, 357.0, 684.0, 357.0, 684.0, 333.0, 697.5, 333.0 ],
					"order" : 0,
					"source" : [ "obj-64", 1 ]
				}

			}
, 			{
				"patchline" : 				{
					"destination" : [ "obj-9", 0 ],
					"midpoints" : [ 633.5, 414.0, 570.0, 414.0, 570.0, 735.0, 628.5, 735.0 ],
					"order" : 1,
					"source" : [ "obj-64", 1 ]
				}

			}
, 			{
				"patchline" : 				{
					"destination" : [ "obj-66", 0 ],
					"midpoints" : [ 760.5, 312.0, 798.0, 312.0, 798.0, 285.0, 812.5, 285.0 ],
					"order" : 0,
					"source" : [ "obj-67", 0 ]
				}

			}
, 			{
				"patchline" : 				{
					"destination" : [ "obj-69", 0 ],
					"midpoints" : [ 760.5, 312.0, 753.5, 312.0 ],
					"order" : 1,
					"source" : [ "obj-67", 0 ]
				}

			}
, 			{
				"patchline" : 				{
					"destination" : [ "obj-17", 0 ],
					"midpoints" : [ 753.5, 414.0, 723.0, 414.0, 723.0, 417.0, 404.5, 417.0 ],
					"source" : [ "obj-69", 0 ]
				}

			}
, 			{
				"patchline" : 				{
					"destination" : [ "obj-68", 0 ],
					"midpoints" : [ 783.5, 411.0, 837.0, 411.0, 837.0, 336.0, 849.5, 336.0 ],
					"order" : 0,
					"source" : [ "obj-69", 1 ]
				}

			}
, 			{
				"patchline" : 				{
					"destination" : [ "obj-9", 0 ],
					"midpoints" : [ 783.5, 414.0, 723.0, 414.0, 723.0, 423.0, 570.0, 423.0, 570.0, 735.0, 628.5, 735.0 ],
					"order" : 1,
					"source" : [ "obj-69", 1 ]
				}

			}
, 			{
				"patchline" : 				{
					"destination" : [ "obj-71", 0 ],
					"midpoints" : [ 915.5, 315.0, 954.0, 315.0, 954.0, 288.0, 967.5, 288.0 ],
					"order" : 0,
					"source" : [ "obj-72", 0 ]
				}

			}
, 			{
				"patchline" : 				{
					"destination" : [ "obj-74", 0 ],
					"midpoints" : [ 915.5, 315.0, 908.5, 315.0 ],
					"order" : 1,
					"source" : [ "obj-72", 0 ]
				}

			}
, 			{
				"patchline" : 				{
					"destination" : [ "obj-17", 0 ],
					"midpoints" : [ 908.5, 414.0, 876.0, 414.0, 876.0, 420.0, 404.5, 420.0 ],
					"source" : [ "obj-74", 0 ]
				}

			}
, 			{
				"patchline" : 				{
					"destination" : [ "obj-73", 0 ],
					"midpoints" : [ 937.5, 414.0, 990.0, 414.0, 990.0, 339.0, 1004.5, 339.0 ],
					"order" : 0,
					"source" : [ "obj-74", 1 ]
				}

			}
, 			{
				"patchline" : 				{
					"destination" : [ "obj-9", 0 ],
					"midpoints" : [ 937.5, 414.0, 876.0, 414.0, 876.0, 735.0, 628.5, 735.0 ],
					"order" : 1,
					"source" : [ "obj-74", 1 ]
				}

			}
, 			{
				"patchline" : 				{
					"destination" : [ "obj-76", 0 ],
					"midpoints" : [ 1068.5, 315.0, 1107.0, 315.0, 1107.0, 288.0, 1120.5, 288.0 ],
					"order" : 0,
					"source" : [ "obj-77", 0 ]
				}

			}
, 			{
				"patchline" : 				{
					"destination" : [ "obj-79", 0 ],
					"midpoints" : [ 1068.5, 315.0, 1061.5, 315.0 ],
					"order" : 1,
					"source" : [ "obj-77", 0 ]
				}

			}
, 			{
				"patchline" : 				{
					"destination" : [ "obj-17", 0 ],
					"midpoints" : [ 1061.5, 414.0, 1029.0, 414.0, 1029.0, 423.0, 404.5, 423.0 ],
					"source" : [ "obj-79", 0 ]
				}

			}
, 			{
				"patchline" : 				{
					"destination" : [ "obj-78", 0 ],
					"midpoints" : [ 1093.5, 414.0, 1146.0, 414.0, 1146.0, 363.0, 1143.0, 363.0, 1143.0, 339.0, 1157.5, 339.0 ],
					"order" : 0,
					"source" : [ "obj-79", 1 ]
				}

			}
, 			{
				"patchline" : 				{
					"destination" : [ "obj-9", 0 ],
					"midpoints" : [ 1093.5, 414.0, 1194.0, 414.0, 1194.0, 744.0, 628.5, 744.0 ],
					"order" : 1,
					"source" : [ "obj-79", 1 ]
				}

			}
, 			{
				"patchline" : 				{
					"destination" : [ "obj-81", 0 ],
					"midpoints" : [ 1068.5, 621.0, 1107.0, 621.0, 1107.0, 594.0, 1120.5, 594.0 ],
					"order" : 0,
					"source" : [ "obj-82", 0 ]
				}

			}
, 			{
				"patchline" : 				{
					"destination" : [ "obj-85", 0 ],
					"midpoints" : [ 1068.5, 621.0, 1061.5, 621.0 ],
					"order" : 1,
					"source" : [ "obj-82", 0 ]
				}

			}
, 			{
				"patchline" : 				{
					"destination" : [ "obj-17", 0 ],
					"midpoints" : [ 1061.5, 738.0, 696.0, 738.0, 696.0, 732.0, 489.0, 732.0, 489.0, 624.0, 404.5, 624.0 ],
					"source" : [ "obj-85", 0 ]
				}

			}
, 			{
				"patchline" : 				{
					"destination" : [ "obj-84", 0 ],
					"midpoints" : [ 1091.0, 720.0, 1146.0, 720.0, 1146.0, 669.0, 1143.0, 669.0, 1143.0, 645.0, 1157.5, 645.0 ],
					"source" : [ "obj-85", 1 ]
				}

			}
, 			{
				"patchline" : 				{
					"destination" : [ "obj-86", 0 ],
					"midpoints" : [ 915.5, 621.0, 954.0, 621.0, 954.0, 594.0, 967.5, 594.0 ],
					"order" : 0,
					"source" : [ "obj-87", 0 ]
				}

			}
, 			{
				"patchline" : 				{
					"destination" : [ "obj-89", 0 ],
					"midpoints" : [ 915.5, 621.0, 908.5, 621.0 ],
					"order" : 1,
					"source" : [ "obj-87", 0 ]
				}

			}
, 			{
				"patchline" : 				{
					"destination" : [ "obj-17", 0 ],
					"midpoints" : [ 908.5, 735.0, 489.0, 735.0, 489.0, 624.0, 404.5, 624.0 ],
					"source" : [ "obj-89", 0 ]
				}

			}
, 			{
				"patchline" : 				{
					"destination" : [ "obj-88", 0 ],
					"midpoints" : [ 940.5, 720.0, 993.0, 720.0, 993.0, 669.0, 990.0, 669.0, 990.0, 645.0, 1004.5, 645.0 ],
					"order" : 0,
					"source" : [ "obj-89", 1 ]
				}

			}
, 			{
				"patchline" : 				{
					"destination" : [ "obj-9", 0 ],
					"midpoints" : [ 940.5, 735.0, 628.5, 735.0 ],
					"order" : 1,
					"source" : [ "obj-89", 1 ]
				}

			}
, 			{
				"patchline" : 				{
					"destination" : [ "obj-90", 0 ],
					"midpoints" : [ 760.5, 618.0, 798.0, 618.0, 798.0, 591.0, 812.5, 591.0 ],
					"order" : 0,
					"source" : [ "obj-91", 0 ]
				}

			}
, 			{
				"patchline" : 				{
					"destination" : [ "obj-93", 0 ],
					"midpoints" : [ 760.5, 618.0, 753.5, 618.0 ],
					"order" : 1,
					"source" : [ "obj-91", 0 ]
				}

			}
, 			{
				"patchline" : 				{
					"destination" : [ "obj-17", 0 ],
					"midpoints" : [ 753.5, 732.0, 489.0, 732.0, 489.0, 624.0, 404.5, 624.0 ],
					"source" : [ "obj-93", 0 ]
				}

			}
, 			{
				"patchline" : 				{
					"destination" : [ "obj-9", 0 ],
					"midpoints" : [ 783.5, 735.0, 628.5, 735.0 ],
					"order" : 1,
					"source" : [ "obj-93", 1 ]
				}

			}
, 			{
				"patchline" : 				{
					"destination" : [ "obj-92", 0 ],
					"midpoints" : [ 783.5, 717.0, 837.0, 717.0, 837.0, 642.0, 849.5, 642.0 ],
					"order" : 0,
					"source" : [ "obj-93", 1 ]
				}

			}
, 			{
				"patchline" : 				{
					"destination" : [ "obj-94", 0 ],
					"midpoints" : [ 608.5, 615.0, 648.0, 615.0, 648.0, 588.0, 660.5, 588.0 ],
					"order" : 0,
					"source" : [ "obj-95", 0 ]
				}

			}
, 			{
				"patchline" : 				{
					"destination" : [ "obj-97", 0 ],
					"midpoints" : [ 608.5, 615.0, 601.5, 615.0 ],
					"order" : 1,
					"source" : [ "obj-95", 0 ]
				}

			}
, 			{
				"patchline" : 				{
					"destination" : [ "obj-17", 0 ],
					"midpoints" : [ 601.5, 705.0, 489.0, 705.0, 489.0, 624.0, 404.5, 624.0 ],
					"source" : [ "obj-97", 0 ]
				}

			}
, 			{
				"patchline" : 				{
					"destination" : [ "obj-9", 0 ],
					"midpoints" : [ 629.5, 744.0, 628.5, 744.0 ],
					"order" : 1,
					"source" : [ "obj-97", 1 ]
				}

			}
, 			{
				"patchline" : 				{
					"destination" : [ "obj-96", 0 ],
					"midpoints" : [ 629.5, 714.0, 684.0, 714.0, 684.0, 639.0, 697.5, 639.0 ],
					"order" : 0,
					"source" : [ "obj-97", 1 ]
				}

			}
, 			{
				"patchline" : 				{
					"destination" : [ "obj-101", 0 ],
					"midpoints" : [ 1068.5, 465.0, 1061.5, 465.0 ],
					"order" : 1,
					"source" : [ "obj-99", 0 ]
				}

			}
, 			{
				"patchline" : 				{
					"destination" : [ "obj-98", 0 ],
					"midpoints" : [ 1068.5, 465.0, 1107.0, 465.0, 1107.0, 438.0, 1120.5, 438.0 ],
					"order" : 0,
					"source" : [ "obj-99", 0 ]
				}

			}
 ]
	}

}
